<?xml version="1.0" standalone="no"?>
<!DOCTYPE svg PUBLIC "-//W3C//DTD SVG 20010904//EN"
 "http://www.w3.org/TR/2001/REC-SVG-20010904/DTD/svg10.dtd">
<svg version="1.0" xmlns="http://www.w3.org/2000/svg"
 width="798.000000pt" height="311.000000pt" viewBox="0 0 798.000000 311.000000"
 preserveAspectRatio="xMidYMid meet">

<g transform="translate(0.000000,311.000000) scale(0.100000,-0.100000)"
fill="#000000" stroke="none">
<path d="M2159 2072 c-14 -9 -101 -86 -192 -171 -184 -170 -191 -181 -141
-240 45 -54 62 -46 229 109 83 77 155 139 162 140 7 0 80 -63 163 -140 165
-152 182 -161 226 -113 50 54 46 68 -52 162 -49 47 -135 128 -191 179 -91 82
-107 92 -140 92 -21 0 -50 -8 -64 -18z"/>
<path d="M2058 1742 l-147 -137 -1 -117 c0 -116 0 -118 29 -150 l29 -33 176
-3 c117 -2 176 0 176 7 0 7 -53 11 -142 13 -139 3 -143 4 -146 25 -5 36 33
108 73 138 26 21 51 30 90 33 71 6 97 -2 141 -40 l36 -32 20 27 c11 15 46 43
79 63 32 20 59 43 59 51 0 8 -26 38 -57 66 -32 29 -100 91 -152 140 -52 48
-99 87 -105 86 -6 0 -77 -62 -158 -137z m223 -21 c37 -37 38 -79 3 -120 -54
-64 -154 -28 -154 57 0 85 91 123 151 63z"/>
<path d="M3260 1741 l0 -41 80 0 c46 0 81 -4 82 -10 5 -33 1 -35 -77 -40 l-80
-5 -3 -42 -3 -43 90 0 c79 0 92 -2 101 -19 19 -36 -11 -51 -106 -51 l-84 0 0
-40 0 -40 85 0 c97 0 143 15 168 53 23 35 22 99 -2 128 -13 17 -16 30 -11 50
12 40 1 74 -32 106 -27 26 -36 28 -119 31 l-89 4 0 -41z"/>
<path d="M3890 1595 l0 -185 45 0 45 0 0 103 1 102 35 -67 c30 -60 38 -68 63
-68 25 0 32 8 62 66 l34 66 3 -101 3 -101 39 0 39 0 3 185 3 185 -42 0 -42 0
-48 -90 c-26 -49 -51 -90 -55 -90 -4 0 -28 41 -54 90 l-46 90 -44 0 -44 0 0
-185z"/>
<path d="M4615 1653 c1 -71 3 -154 4 -185 l1 -58 40 0 40 0 0 60 0 60 39 0
c52 0 71 -20 71 -76 l0 -45 38 3 37 3 -1 54 c-1 29 -8 64 -14 77 -10 19 -10
30 3 62 29 71 -12 151 -84 166 -18 3 -64 6 -104 6 l-72 0 2 -127z m179 31 c35
-34 6 -74 -55 -74 l-39 0 0 45 0 45 39 0 c23 0 46 -7 55 -16z"/>
<path d="M6024 1766 c-3 -8 -4 -25 -2 -38 2 -18 10 -24 35 -26 28 -3 33 1 39
22 3 14 4 33 0 41 -7 19 -65 20 -72 1z"/>
<path d="M3655 1656 c-49 -22 -68 -51 -73 -110 -4 -50 -2 -56 30 -91 27 -30
43 -38 80 -42 54 -6 107 20 126 61 10 23 9 26 -25 37 -31 10 -37 9 -45 -5 -9
-16 -68 -23 -68 -8 0 4 35 19 77 33 42 14 78 30 81 37 2 6 -14 30 -35 52 -44
47 -97 60 -148 36z m79 -74 c5 -9 -65 -35 -72 -27 -3 3 1 11 8 20 13 16 55 21
64 7z"/>
<path d="M5013 1655 c-40 -17 -73 -69 -73 -115 0 -68 61 -130 127 -130 65 0
133 67 133 130 0 39 -33 92 -71 112 -40 21 -72 22 -116 3z m91 -81 c32 -31 8
-84 -38 -84 -29 0 -46 18 -46 50 0 14 5 31 12 38 17 17 54 15 72 -4z"/>
<path d="M5311 1652 c-38 -20 -71 -73 -71 -112 0 -61 68 -130 128 -130 40 0
91 28 112 62 40 66 13 155 -55 184 -46 19 -73 18 -114 -4z m97 -74 c7 -7 12
-24 12 -38 0 -14 -5 -31 -12 -38 -28 -28 -88 -2 -88 38 0 40 60 66 88 38z"/>
<path d="M5612 1650 c-45 -27 -62 -74 -62 -165 l0 -75 40 0 40 0 0 79 c0 85
10 105 52 99 22 -3 23 -8 26 -90 l3 -88 44 0 44 0 3 88 c3 82 4 87 26 90 42 6
52 -14 52 -99 l0 -79 40 0 40 0 0 80 c0 93 -15 131 -63 160 -38 23 -66 25
-110 7 -26 -11 -37 -11 -62 -1 -43 19 -75 17 -113 -6z"/>
<path d="M6223 1654 c-35 -17 -73 -83 -73 -125 0 -57 70 -119 134 -119 41 0
96 33 116 70 8 16 5 20 -26 30 -30 10 -38 9 -53 -4 -10 -9 -27 -16 -39 -16
-44 0 -20 18 53 41 83 25 90 37 53 84 -23 30 -74 55 -110 55 -13 0 -37 -8 -55
-16z m87 -73 c0 -5 -11 -12 -24 -15 -13 -3 -32 -9 -43 -13 -17 -6 -17 -5 1 15
19 22 66 31 66 13z"/>
<path d="M4320 1652 c0 -5 18 -60 40 -122 40 -112 41 -114 25 -158 -20 -61
-20 -62 23 -62 l37 0 58 168 c31 92 57 170 57 175 0 4 -17 7 -38 7 -37 0 -38
-1 -57 -55 -10 -30 -21 -55 -25 -55 -3 0 -14 25 -24 55 -17 54 -17 55 -57 55
-21 0 -39 -4 -39 -8z"/>
<path d="M6020 1535 l0 -125 40 0 40 0 0 125 0 125 -40 0 -40 0 0 -125z"/>
<path d="M2573 1549 c-66 -12 -110 -37 -157 -90 -66 -74 -85 -162 -56 -264 18
-66 105 -155 170 -174 185 -55 360 71 360 259 0 170 -153 300 -317 269z m215
-177 c24 -31 11 -55 -70 -138 -115 -118 -147 -121 -240 -21 -41 44 -47 70 -21
99 24 27 58 22 98 -13 l36 -32 69 67 c57 56 74 66 92 61 13 -4 29 -14 36 -23z"/>
</g>
</svg>
