<svg width="842" height="171" viewBox="0 0 842 171" fill="none" xmlns="http://www.w3.org/2000/svg">
<path d="M720.664 128.512V62.848H740.632V128.512H720.664ZM730.648 55.424C727.491 55.424 724.76 54.272 722.456 51.968C720.152 49.664 719 46.9333 719 43.776C719 40.6187 720.152 37.888 722.456 35.584C724.76 33.1947 727.491 32 730.648 32C733.805 32 736.536 33.1947 738.84 35.584C741.144 37.888 742.296 40.6187 742.296 43.776C742.296 46.9333 741.144 49.664 738.84 51.968C736.536 54.272 733.805 55.424 730.648 55.424Z" fill="black"/>
<path d="M0 32L38.6686 32C44.0286 32 48.8356 33.1123 53.0895 35.3369C57.4286 37.6382 60.8317 40.8984 63.299 45.1174C65.7664 49.3365 67 54.361 67 60.191C67 63.106 66.6171 65.7908 65.8514 68.2456C65.1708 70.7003 64.1924 72.9249 62.9162 74.9194C61.7251 76.9905 60.2787 78.7549 58.5771 80.2124V80.4425C60.2787 81.9767 63.0838 82.2645 67 86C68.2762 88.0712 69.6708 90.0696 70.3514 92.5243C71.1171 95.0558 71.5 97.779 71.5 100.694C71.5 106.524 70.2664 111.548 67.799 115.768C65.3317 119.987 61.9286 123.247 57.5895 125.548C53.3356 127.849 44.0286 129 38.6686 129H0V111.05H38.0305C40.1575 111.05 42.0717 110.551 43.7733 109.554C45.56 108.633 47.0063 107.368 48.1124 105.757C49.2184 104.146 49.7714 102.305 49.7714 100.234C49.7714 98.1625 49.2184 96.2831 48.1124 94.5955C47.0063 92.9846 45.56 91.7189 43.7733 90.7984C42.0717 89.8778 40.1575 89.4176 38.0305 89.4176H0V71.5824H38.0305C40.1575 71.5824 42.0717 71.0838 43.7733 70.0866C45.56 69.1661 47.0063 67.862 48.1124 66.1744C49.2184 64.5635 49.7714 62.7224 49.7714 60.6513C49.7714 58.5801 49.2184 56.7007 48.1124 55.013C47.0063 53.4021 45.56 52.1364 43.7733 51.2159C42.0717 50.2954 40.1575 49.8351 38.0305 49.8351H0V32Z" fill="black"/>
<path d="M797.664 130.832C790.762 132.818 784.419 133.129 778.635 131.766C772.871 130.366 767.909 127.473 763.747 123.09C759.576 118.677 756.473 112.932 754.437 105.855C752.451 98.9535 752.048 92.5108 753.228 86.5272C754.407 80.5436 757.01 75.3962 761.036 71.0848C765.09 66.7652 770.408 63.6586 776.99 61.7652C781.416 60.4917 785.742 60.0197 789.968 60.3492C794.214 60.6411 798.171 61.789 801.837 63.7928C805.533 65.7882 808.797 68.6959 811.631 72.5161C814.456 76.3071 816.689 81.0565 818.331 86.7644L819.801 91.8753L763.145 108.175L759.827 96.6424L798.967 85.3824C798.196 82.7032 796.931 80.4973 795.171 78.7648C793.412 77.0322 791.33 75.881 788.928 75.3109C786.546 74.7034 784 74.7892 781.292 75.5683C778.467 76.381 776.151 77.7568 774.344 79.6956C772.558 81.5969 771.367 83.8156 770.772 86.3516C770.169 88.8585 770.234 91.4412 770.968 94.0996L774.122 105.064C775.077 108.384 776.514 111.076 778.432 113.142C780.38 115.199 782.678 116.556 785.326 117.213C787.975 117.87 790.857 117.75 793.973 116.853C796.041 116.259 797.85 115.423 799.401 114.346C800.951 113.269 802.171 111.973 803.059 110.456C803.947 108.939 804.468 107.244 804.623 105.371L822.161 101.555C822.477 105.942 821.724 110.068 819.904 113.934C818.105 117.763 815.326 121.148 811.569 124.089C807.832 126.993 803.197 129.241 797.664 130.832Z" fill="black"/>
<path d="M310.5 156.5H291.5L298.944 126.176L280 66.4001H297.408L305.344 93.6642L308.032 109.408H308.544L311.232 93.6642L319.168 66.4001H336.576L317.632 126.176L310.5 156.5Z" fill="black"/>
<path d="M351.091 131V37.9091H387.818C394.848 37.9091 400.848 39.1667 405.818 41.6818C410.818 44.1667 414.621 47.697 417.227 52.2727C419.864 56.8182 421.182 62.1667 421.182 68.3182C421.182 74.5 419.848 79.8182 417.182 84.2727C414.515 88.697 410.652 92.0909 405.591 94.4545C400.561 96.8182 394.47 98 387.318 98H362.727V82.1818H384.136C387.894 82.1818 391.015 81.6667 393.5 80.6364C395.985 79.6061 397.833 78.0606 399.045 76C400.288 73.9394 400.909 71.3788 400.909 68.3182C400.909 65.2273 400.288 62.6212 399.045 60.5C397.833 58.3788 395.97 56.7727 393.455 55.6818C390.97 54.5606 387.833 54 384.045 54H370.773V131H351.091ZM401.364 88.6364L424.5 131H402.773L380.136 88.6364H401.364Z" fill="black"/>
<path d="M124.664 130.832C117.762 132.818 111.419 133.129 105.635 131.766C99.8714 130.366 94.9086 127.473 90.7465 123.09C86.576 118.677 83.4728 112.932 81.437 105.855C79.4514 98.9535 79.0484 92.5108 80.2279 86.5272C81.4075 80.5436 84.01 75.3962 88.0356 71.0848C92.0903 66.7652 97.4084 63.6586 103.99 61.7652C108.416 60.4917 112.742 60.0197 116.968 60.3492C121.214 60.6411 125.171 61.789 128.837 63.7928C132.533 65.7882 135.797 68.6959 138.631 72.5161C141.456 76.3071 143.689 81.0565 145.331 86.7644L146.801 91.8753L90.1449 108.175L86.8272 96.6424L125.967 85.3824C125.196 82.7032 123.931 80.4973 122.171 78.7648C120.412 77.0322 118.33 75.881 115.928 75.3109C113.546 74.7034 111 74.7892 108.292 75.5683C105.467 76.381 103.151 77.7568 101.344 79.6956C99.5577 81.5969 98.3671 83.8156 97.7723 86.3516C97.1692 88.8585 97.2343 91.4412 97.9675 94.0996L101.122 105.064C102.077 108.384 103.514 111.076 105.432 113.142C107.38 115.199 109.678 116.556 112.326 117.213C114.975 117.87 117.857 117.75 120.973 116.853C123.041 116.259 124.85 115.423 126.401 114.346C127.951 113.269 129.171 111.973 130.059 110.456C130.947 108.939 131.468 107.244 131.623 105.371L149.161 101.555C149.477 105.942 148.724 110.068 146.904 113.934C145.105 117.763 142.326 121.148 138.569 124.089C134.832 126.993 130.197 129.241 124.664 130.832Z" fill="black"/>
<path d="M596 131.2V92.416C596 87.04 597.237 82.2187 599.712 77.952C602.272 73.6 605.899 70.1867 610.592 67.712C615.285 65.2373 620.875 64 627.36 64C630.603 64 633.589 64.384 636.32 65.152C639.051 65.8347 641.525 66.816 643.744 68.096C646.048 69.2907 648.011 70.7413 649.632 72.448H649.888C651.595 70.7413 653.557 69.2907 655.776 68.096C658.08 66.816 660.597 65.8347 663.328 65.152C666.144 64.384 669.173 64 672.416 64C678.901 64 684.491 65.2373 689.184 67.712C693.877 70.1867 697.504 73.6 700.064 77.952C702.624 82.2187 703.904 87.04 703.904 92.416V131.2H683.936V93.056C683.936 90.9227 683.381 89.0027 682.272 87.296C681.248 85.504 679.84 84.0533 678.048 82.944C676.256 81.8347 674.208 81.28 671.904 81.28C669.6 81.28 667.509 81.8347 665.632 82.944C663.84 84.0533 662.432 85.504 661.408 87.296C660.384 89.0027 659.872 90.9227 659.872 93.056V131.2H640.032V93.056C640.032 90.9227 639.477 89.0027 638.368 87.296C637.344 85.504 635.893 84.0533 634.016 82.944C632.224 81.8347 630.176 81.28 627.872 81.28C625.568 81.28 623.477 81.8347 621.6 82.944C619.808 84.0533 618.4 85.504 617.376 87.296C616.352 89.0027 615.84 90.9227 615.84 93.056V131.2H596Z" fill="black"/>
<path d="M549.334 131.736C542.593 131.736 536.534 130.243 531.158 127.256C525.782 124.269 521.515 120.173 518.358 114.968C515.286 109.763 513.75 103.917 513.75 97.432C513.75 90.8613 515.286 85.016 518.358 79.896C521.515 74.6907 525.782 70.5947 531.158 67.608C536.534 64.536 542.593 63 549.334 63C556.075 63 562.091 64.536 567.382 67.608C572.758 70.5947 576.982 74.6907 580.054 79.896C583.211 85.016 584.79 90.8613 584.79 97.432C584.79 103.917 583.211 109.763 580.054 114.968C576.982 120.173 572.758 124.269 567.382 127.256C562.006 130.243 555.99 131.736 549.334 131.736ZM549.334 114.456C552.491 114.456 555.222 113.688 557.526 112.152C559.83 110.616 561.622 108.568 562.902 106.008C564.182 103.448 564.822 100.547 564.822 97.304C564.822 94.1467 564.182 91.288 562.902 88.728C561.622 86.168 559.83 84.12 557.526 82.584C555.222 81.048 552.491 80.28 549.334 80.28C546.177 80.28 543.403 81.048 541.014 82.584C538.71 84.12 536.918 86.168 535.638 88.728C534.358 91.288 533.718 94.1467 533.718 97.304C533.718 100.547 534.358 103.448 535.638 106.008C536.918 108.568 538.71 110.616 541.014 112.152C543.403 113.688 546.177 114.456 549.334 114.456Z" fill="black"/>
<path d="M469.584 131.736C462.843 131.736 456.784 130.243 451.408 127.256C446.032 124.269 441.765 120.173 438.608 114.968C435.536 109.763 434 103.917 434 97.432C434 90.8613 435.536 85.016 438.608 79.896C441.765 74.6907 446.032 70.5947 451.408 67.608C456.784 64.536 462.843 63 469.584 63C476.325 63 482.341 64.536 487.632 67.608C493.008 70.5947 497.232 74.6907 500.304 79.896C503.461 85.016 505.04 90.8613 505.04 97.432C505.04 103.917 503.461 109.763 500.304 114.968C497.232 120.173 493.008 124.269 487.632 127.256C482.256 130.243 476.24 131.736 469.584 131.736ZM469.584 114.456C472.741 114.456 475.472 113.688 477.776 112.152C480.08 110.616 481.872 108.568 483.152 106.008C484.432 103.448 485.072 100.547 485.072 97.304C485.072 94.1467 484.432 91.288 483.152 88.728C481.872 86.168 480.08 84.12 477.776 82.584C475.472 81.048 472.741 80.28 469.584 80.28C466.427 80.28 463.653 81.048 461.264 82.584C458.96 84.12 457.168 86.168 455.888 88.728C454.608 91.288 453.968 94.1467 453.968 97.304C453.968 100.547 454.608 103.448 455.888 106.008C457.168 108.568 458.96 110.616 461.264 112.152C463.653 113.688 466.427 114.456 469.584 114.456Z" fill="black"/>
<path d="M164 34H188.273L215.409 80.5908L240.636 34H264.909V131.5H245.818V66.5H245.045L222 109.591H208L183.864 66.2727H183.091V131.5H164V34Z" fill="black"/>
</svg>
