<svg width="1225" height="301" viewBox="0 0 1225 301" fill="none" xmlns="http://www.w3.org/2000/svg">
<path d="M1103.66 187.512V121.848H1123.63V187.512H1103.66ZM1113.65 114.424C1110.49 114.424 1107.76 113.272 1105.46 110.968C1103.15 108.664 1102 105.933 1102 102.776C1102 99.6187 1103.15 96.888 1105.46 94.584C1107.76 92.1947 1110.49 91 1113.65 91C1116.81 91 1119.54 92.1947 1121.84 94.584C1124.14 96.888 1125.3 99.6187 1125.3 102.776C1125.3 105.933 1124.14 108.664 1121.84 110.968C1119.54 113.272 1116.81 114.424 1113.65 114.424Z" fill="black"/>
<path d="M383 91H421.669C427.029 91 431.836 92.1123 436.09 94.3369C440.429 96.6382 443.832 99.8984 446.299 104.117C448.766 108.336 450 113.361 450 119.191C450 122.106 449.617 124.791 448.851 127.246C448.171 129.7 447.192 131.925 445.916 133.919C444.725 135.991 443.279 137.755 441.577 139.212V139.442C443.279 140.977 446.084 141.265 450 145C451.276 147.071 452.671 149.07 453.351 151.524C454.117 154.056 454.5 156.779 454.5 159.694C454.5 165.524 453.266 170.548 450.799 174.768C448.332 178.987 444.929 182.247 440.59 184.548C436.336 186.849 427.029 188 421.669 188H383V170.05H421.03C423.157 170.05 425.072 169.551 426.773 168.554C428.56 167.633 430.006 166.368 431.112 164.757C432.218 163.146 432.771 161.305 432.771 159.234C432.771 157.163 432.218 155.283 431.112 153.596C430.006 151.985 428.56 150.719 426.773 149.798C425.072 148.878 423.157 148.418 421.03 148.418H383V130.582H421.03C423.157 130.582 425.072 130.084 426.773 129.087C428.56 128.166 430.006 126.862 431.112 125.174C432.218 123.563 432.771 121.722 432.771 119.651C432.771 117.58 432.218 115.701 431.112 114.013C430.006 112.402 428.56 111.136 426.773 110.216C425.072 109.295 423.157 108.835 421.03 108.835H383V91Z" fill="black"/>
<path d="M1180.66 189.832C1173.76 191.818 1167.42 192.129 1161.63 190.766C1155.87 189.366 1150.91 186.473 1146.75 182.09C1142.58 177.677 1139.47 171.932 1137.44 164.855C1135.45 157.954 1135.05 151.511 1136.23 145.527C1137.41 139.544 1140.01 134.396 1144.04 130.085C1148.09 125.765 1153.41 122.659 1159.99 120.765C1164.42 119.492 1168.74 119.02 1172.97 119.349C1177.21 119.641 1181.17 120.789 1184.84 122.793C1188.53 124.788 1191.8 127.696 1194.63 131.516C1197.46 135.307 1199.69 140.057 1201.33 145.764L1202.8 150.875L1146.14 167.175L1142.83 155.642L1181.97 144.382C1181.2 141.703 1179.93 139.497 1178.17 137.765C1176.41 136.032 1174.33 134.881 1171.93 134.311C1169.55 133.703 1167 133.789 1164.29 134.568C1161.47 135.381 1159.15 136.757 1157.34 138.696C1155.56 140.597 1154.37 142.816 1153.77 145.352C1153.17 147.858 1153.23 150.441 1153.97 153.1L1157.12 164.064C1158.08 167.384 1159.51 170.076 1161.43 172.142C1163.38 174.199 1165.68 175.556 1168.33 176.213C1170.97 176.87 1173.86 176.75 1176.97 175.853C1179.04 175.259 1180.85 174.423 1182.4 173.346C1183.95 172.269 1185.17 170.973 1186.06 169.456C1186.95 167.939 1187.47 166.244 1187.62 164.371L1205.16 160.555C1205.48 164.942 1204.72 169.068 1202.9 172.934C1201.1 176.763 1198.33 180.148 1194.57 183.089C1190.83 185.993 1186.2 188.241 1180.66 189.832Z" fill="black"/>
<path d="M693.5 215.5H674.5L681.944 185.176L663 125.4H680.408L688.344 152.664L691.032 168.408H691.544L694.232 152.664L702.168 125.4H719.576L700.632 185.176L693.5 215.5Z" fill="black"/>
<path d="M734.091 190V96.9091H770.818C777.848 96.9091 783.848 98.1667 788.818 100.682C793.818 103.167 797.621 106.697 800.227 111.273C802.864 115.818 804.182 121.167 804.182 127.318C804.182 133.5 802.848 138.818 800.182 143.273C797.515 147.697 793.652 151.091 788.591 153.455C783.561 155.818 777.47 157 770.318 157H745.727V141.182H767.136C770.894 141.182 774.015 140.667 776.5 139.636C778.985 138.606 780.833 137.061 782.045 135C783.288 132.939 783.909 130.379 783.909 127.318C783.909 124.227 783.288 121.621 782.045 119.5C780.833 117.379 778.97 115.773 776.455 114.682C773.97 113.561 770.833 113 767.045 113H753.773V190H734.091ZM784.364 147.636L807.5 190H785.773L763.136 147.636H784.364Z" fill="black"/>
<path d="M507.664 189.832C500.762 191.818 494.419 192.129 488.635 190.766C482.871 189.366 477.909 186.473 473.747 182.09C469.576 177.677 466.473 171.932 464.437 164.855C462.451 157.954 462.048 151.511 463.228 145.527C464.407 139.544 467.01 134.396 471.036 130.085C475.09 125.765 480.408 122.659 486.99 120.765C491.416 119.492 495.742 119.02 499.968 119.349C504.214 119.641 508.171 120.789 511.837 122.793C515.533 124.788 518.797 127.696 521.631 131.516C524.456 135.307 526.689 140.057 528.331 145.764L529.801 150.875L473.145 167.175L469.827 155.642L508.967 144.382C508.196 141.703 506.931 139.497 505.171 137.765C503.412 136.032 501.33 134.881 498.928 134.311C496.546 133.703 494 133.789 491.292 134.568C488.467 135.381 486.151 136.757 484.344 138.696C482.558 140.597 481.367 142.816 480.772 145.352C480.169 147.858 480.234 150.441 480.968 153.1L484.122 164.064C485.077 167.384 486.514 170.076 488.432 172.142C490.38 174.199 492.678 175.556 495.326 176.213C497.975 176.87 500.857 176.75 503.973 175.853C506.041 175.259 507.85 174.423 509.401 173.346C510.951 172.269 512.171 170.973 513.059 169.456C513.947 167.939 514.468 166.244 514.623 164.371L532.161 160.555C532.477 164.942 531.724 169.068 529.904 172.934C528.105 176.763 525.326 180.148 521.569 183.089C517.832 185.993 513.197 188.241 507.664 189.832Z" fill="black"/>
<path d="M979 190.2V151.416C979 146.04 980.237 141.219 982.712 136.952C985.272 132.6 988.899 129.187 993.592 126.712C998.285 124.237 1003.87 123 1010.36 123C1013.6 123 1016.59 123.384 1019.32 124.152C1022.05 124.835 1024.53 125.816 1026.74 127.096C1029.05 128.291 1031.01 129.741 1032.63 131.448H1032.89C1034.59 129.741 1036.56 128.291 1038.78 127.096C1041.08 125.816 1043.6 124.835 1046.33 124.152C1049.14 123.384 1052.17 123 1055.42 123C1061.9 123 1067.49 124.237 1072.18 126.712C1076.88 129.187 1080.5 132.6 1083.06 136.952C1085.62 141.219 1086.9 146.04 1086.9 151.416V190.2H1066.94V152.056C1066.94 149.923 1066.38 148.003 1065.27 146.296C1064.25 144.504 1062.84 143.053 1061.05 141.944C1059.26 140.835 1057.21 140.28 1054.9 140.28C1052.6 140.28 1050.51 140.835 1048.63 141.944C1046.84 143.053 1045.43 144.504 1044.41 146.296C1043.38 148.003 1042.87 149.923 1042.87 152.056V190.2H1023.03V152.056C1023.03 149.923 1022.48 148.003 1021.37 146.296C1020.34 144.504 1018.89 143.053 1017.02 141.944C1015.22 140.835 1013.18 140.28 1010.87 140.28C1008.57 140.28 1006.48 140.835 1004.6 141.944C1002.81 143.053 1001.4 144.504 1000.38 146.296C999.352 148.003 998.84 149.923 998.84 152.056V190.2H979Z" fill="black"/>
<path d="M932.334 190.736C925.593 190.736 919.534 189.243 914.158 186.256C908.782 183.269 904.515 179.173 901.358 173.968C898.286 168.763 896.75 162.917 896.75 156.432C896.75 149.861 898.286 144.016 901.358 138.896C904.515 133.691 908.782 129.595 914.158 126.608C919.534 123.536 925.593 122 932.334 122C939.075 122 945.091 123.536 950.382 126.608C955.758 129.595 959.982 133.691 963.054 138.896C966.211 144.016 967.79 149.861 967.79 156.432C967.79 162.917 966.211 168.763 963.054 173.968C959.982 179.173 955.758 183.269 950.382 186.256C945.006 189.243 938.99 190.736 932.334 190.736ZM932.334 173.456C935.491 173.456 938.222 172.688 940.526 171.152C942.83 169.616 944.622 167.568 945.902 165.008C947.182 162.448 947.822 159.547 947.822 156.304C947.822 153.147 947.182 150.288 945.902 147.728C944.622 145.168 942.83 143.12 940.526 141.584C938.222 140.048 935.491 139.28 932.334 139.28C929.177 139.28 926.403 140.048 924.014 141.584C921.71 143.12 919.918 145.168 918.638 147.728C917.358 150.288 916.718 153.147 916.718 156.304C916.718 159.547 917.358 162.448 918.638 165.008C919.918 167.568 921.71 169.616 924.014 171.152C926.403 172.688 929.177 173.456 932.334 173.456Z" fill="black"/>
<path d="M852.584 190.736C845.843 190.736 839.784 189.243 834.408 186.256C829.032 183.269 824.765 179.173 821.608 173.968C818.536 168.763 817 162.917 817 156.432C817 149.861 818.536 144.016 821.608 138.896C824.765 133.691 829.032 129.595 834.408 126.608C839.784 123.536 845.843 122 852.584 122C859.325 122 865.341 123.536 870.632 126.608C876.008 129.595 880.232 133.691 883.304 138.896C886.461 144.016 888.04 149.861 888.04 156.432C888.04 162.917 886.461 168.763 883.304 173.968C880.232 179.173 876.008 183.269 870.632 186.256C865.256 189.243 859.24 190.736 852.584 190.736ZM852.584 173.456C855.741 173.456 858.472 172.688 860.776 171.152C863.08 169.616 864.872 167.568 866.152 165.008C867.432 162.448 868.072 159.547 868.072 156.304C868.072 153.147 867.432 150.288 866.152 147.728C864.872 145.168 863.08 143.12 860.776 141.584C858.472 140.048 855.741 139.28 852.584 139.28C849.427 139.28 846.653 140.048 844.264 141.584C841.96 143.12 840.168 145.168 838.888 147.728C837.608 150.288 836.968 153.147 836.968 156.304C836.968 159.547 837.608 162.448 838.888 165.008C840.168 167.568 841.96 169.616 844.264 171.152C846.653 172.688 849.427 173.456 852.584 173.456Z" fill="black"/>
<path d="M547 93H571.273L598.409 139.591L623.636 93H647.909V190.5H628.818V125.5H628.045L605 168.591H591L566.864 125.273H566.091V190.5H547V93Z" fill="black"/>
<path fill-rule="evenodd" clip-rule="evenodd" d="M5.23191 93.2345C-1.54369 99.7339 -1.76764 110.495 4.73171 117.271L10.7145 123.508C17.2138 130.284 27.9753 130.508 34.7509 124.008L109.152 52.6407L185.193 123.014C192.083 129.391 202.839 128.975 209.216 122.084L215.086 115.741C221.464 108.85 221.047 98.0945 214.157 91.7173L127.936 11.9225C127.799 11.7695 127.659 11.6182 127.516 11.469L121.533 5.23191C115.512 -1.04471 105.834 -1.69912 99.0551 3.40511C98.0725 4.09135 97.1478 4.89262 96.3005 5.80824L95.7164 6.43934L5.23191 93.2345Z" fill="#141519"/>
<path fill-rule="evenodd" clip-rule="evenodd" d="M190.619 149.355C158.622 157.047 134.611 185.251 133.272 219.28H165.619C179.427 219.28 190.619 208.087 190.619 194.28V149.355ZM190.553 139.355L109.678 63.355L28.804 139.355H28.6784V139.473L28.272 139.855H28.6784V194.355C28.6784 208.162 39.8712 219.355 53.6784 219.355H165.678C179.485 219.355 190.678 208.162 190.678 194.355V139.855H191.085L190.678 139.473V139.355H190.553Z" fill="#141519"/>
<circle cx="212.272" cy="225.355" r="75" fill="#141519"/>
<circle cx="109.5" cy="116.5" r="24.5" fill="white"/>
<path d="M110.289 150.958C62.7552 147.312 56.7147 188.82 57.2241 208.354L137.72 208.755C139.16 200.744 144.556 186.703 152.481 176.644C143.806 153.709 121.022 150.513 110.289 150.958Z" fill="white"/>
<path fill-rule="evenodd" clip-rule="evenodd" d="M196.925 254.983C197.312 255.506 197.739 256.009 198.206 256.489C203.843 262.282 213.109 262.409 218.902 256.772L258.491 218.25C264.284 212.614 264.41 203.348 258.774 197.555C253.137 191.762 243.871 191.635 238.078 197.272L208.137 226.406L191.971 212.07C186.016 206.79 176.909 207.337 171.629 213.291C166.348 219.245 166.895 228.353 172.849 233.633L196.925 254.983Z" fill="white"/>
</svg>
