<svg width="288" height="301" viewBox="0 0 288 301" fill="none" xmlns="http://www.w3.org/2000/svg">
<path fill-rule="evenodd" clip-rule="evenodd" d="M5.23191 93.2345C-1.54369 99.7339 -1.76764 110.495 4.73171 117.271L10.7145 123.508C17.2138 130.284 27.9753 130.508 34.7509 124.008L109.152 52.6407L185.193 123.014C192.083 129.391 202.839 128.975 209.216 122.084L215.086 115.741C221.464 108.85 221.047 98.0945 214.157 91.7173L127.936 11.9225C127.799 11.7695 127.659 11.6182 127.516 11.469L121.533 5.23191C115.512 -1.04471 105.834 -1.69912 99.0551 3.40511C98.0725 4.09135 97.1478 4.89262 96.3005 5.80824L95.7164 6.43934L5.23191 93.2345Z" fill="#141519"/>
<path fill-rule="evenodd" clip-rule="evenodd" d="M190.619 149.355C158.622 157.047 134.611 185.251 133.272 219.28H165.619C179.427 219.28 190.619 208.087 190.619 194.28V149.355ZM190.553 139.355L109.678 63.355L28.804 139.355H28.6784V139.473L28.272 139.855H28.6784V194.355C28.6784 208.162 39.8712 219.355 53.6784 219.355H165.678C179.485 219.355 190.678 208.162 190.678 194.355V139.855H191.085L190.678 139.473V139.355H190.553Z" fill="#141519"/>
<circle cx="212.272" cy="225.355" r="75" fill="#141519"/>
<circle cx="109.5" cy="116.5" r="24.5" fill="white"/>
<path d="M110.289 150.958C62.7552 147.312 56.7147 188.82 57.2241 208.354L137.72 208.755C139.16 200.744 144.556 186.703 152.481 176.644C143.806 153.709 121.022 150.513 110.289 150.958Z" fill="white"/>
<path fill-rule="evenodd" clip-rule="evenodd" d="M196.925 254.983C197.312 255.506 197.739 256.009 198.206 256.489C203.843 262.282 213.109 262.409 218.902 256.772L258.491 218.25C264.284 212.614 264.41 203.348 258.774 197.555C253.137 191.762 243.871 191.635 238.078 197.272L208.137 226.406L191.971 212.07C186.016 206.79 176.909 207.337 171.629 213.291C166.348 219.245 166.895 228.353 172.849 233.633L196.925 254.983Z" fill="white"/>
</svg>
